<svg width="50" height="54" viewBox="0 0 50 54" fill="none" xmlns="http://www.w3.org/2000/svg">
<g filter="url(#filter0_d_17_2366)">
<rect width="50" height="50" fill="#171958" shape-rendering="crispEdges"/>
<path d="M23.25 33.75H19.75V35.5H23.25V33.75Z" fill="#F7FEFF"/>
<path d="M19.75 32H18V33.75H19.75V32Z" fill="#F7FEFF"/>
<path d="M23.25 30.25V33.75H25V32H37.25V30.25H23.25Z" fill="#F7FEFF"/>
<path d="M21.5 30.25H19.75V32H21.5V30.25Z" fill="#484085"/>
<path d="M19.75 30.25H18V32H19.75V30.25Z" fill="#231E2B"/>
<path d="M18 30.25H16.25V32H18V30.25Z" fill="#F7FEFF"/>
<path d="M19.75 28.5H18V30.25H19.75V28.5Z" fill="#484085"/>
<path d="M18 28.5H16.25V30.25H18V28.5Z" fill="#231E2B"/>
<path d="M16.25 28.5H14.5V30.25H16.25V28.5Z" fill="#F7FEFF"/>
<path d="M37.25 19.75H23.25V16.25H19.75V18H21.5V21.5H35.5V28.5H21.5V32H19.75V33.75H23.25V30.25H37.25V19.75Z" fill="#231E2B"/>
<path d="M35.5 26.75H21.5V28.5H35.5V26.75Z" fill="#484085"/>
<path d="M18 26.75H16.25V28.5H18V26.75Z" fill="#484085"/>
<path d="M16.25 26.75H14.5V28.5H16.25V26.75Z" fill="#231E2B"/>
<path d="M14.5 26.75H12.75V28.5H14.5V26.75Z" fill="#F7FEFF"/>
<path d="M16.25 25H14.5V26.75H16.25V25Z" fill="#484085"/>
<path d="M14.5 23.25H12.75V26.75H14.5V23.25Z" fill="#231E2B"/>
<path d="M16.25 23.25H14.5V25H16.25V23.25Z" fill="#927BB3"/>
<path d="M12.75 23.25H11V26.75H12.75V23.25Z" fill="#F7FEFF"/>
<path d="M35.5 21.5H21.5V23.25H35.5V21.5Z" fill="#927BB3"/>
<path d="M18 21.5H16.25V23.25H18V21.5Z" fill="#927BB3"/>
<path d="M16.25 21.5H14.5V23.25H16.25V21.5Z" fill="#231E2B"/>
<path d="M14.5 21.5H12.75V23.25H14.5V21.5Z" fill="#F7FEFF"/>
<path d="M39 19.75H37.25V30.25H39V19.75Z" fill="#F7FEFF"/>
<path d="M19.75 21.5H18V23.25H16.25V26.75H18V28.5H19.75V30.25H21.5V26.75H35.5V23.25H21.5V19.75H19.75V21.5Z" fill="#6F59AB"/>
<path d="M19.75 19.75H18V21.5H19.75V19.75Z" fill="#927BB3"/>
<path d="M18 19.75H16.25V21.5H18V19.75Z" fill="#231E2B"/>
<path d="M16.25 19.75H14.5V21.5H16.25V19.75Z" fill="#F7FEFF"/>
<path d="M23.25 19.75H37.25V18H25V16.25H23.25V19.75Z" fill="#F7FEFF"/>
<path d="M21.5 18H19.75V19.75H21.5V18Z" fill="#927BB3"/>
<path d="M19.75 18H18V19.75H19.75V18Z" fill="#231E2B"/>
<path d="M18 18H16.25V19.75H18V18Z" fill="#F7FEFF"/>
<path d="M19.75 16.25H18V18H19.75V16.25Z" fill="#F7FEFF"/>
<path d="M23.25 14.5H19.75V16.25H23.25V14.5Z" fill="#F7FEFF"/>
<rect x="1" y="1" width="48" height="48" stroke="white" stroke-width="2" shape-rendering="crispEdges"/>
</g>
<defs>
<filter id="filter0_d_17_2366" x="0" y="0" width="50" height="54" filterUnits="userSpaceOnUse" color-interpolation-filters="sRGB">
<feFlood flood-opacity="0" result="BackgroundImageFix"/>
<feColorMatrix in="SourceAlpha" type="matrix" values="0 0 0 0 0 0 0 0 0 0 0 0 0 0 0 0 0 0 127 0" result="hardAlpha"/>
<feOffset dy="4"/>
<feComposite in2="hardAlpha" operator="out"/>
<feColorMatrix type="matrix" values="0 0 0 0 0 0 0 0 0 0 0 0 0 0 0 0 0 0 0.5 0"/>
<feBlend mode="normal" in2="BackgroundImageFix" result="effect1_dropShadow_17_2366"/>
<feBlend mode="normal" in="SourceGraphic" in2="effect1_dropShadow_17_2366" result="shape"/>
</filter>
</defs>
</svg>
