<svg width="24" height="24" viewBox="0 0 24 24" fill="none" xmlns="http://www.w3.org/2000/svg">
<path d="M18 22.5H4.5V24H18V22.5Z" fill="#F7FEFF"/>
<path d="M19.5 19.5H18V22.5H19.5V19.5Z" fill="#F7FEFF"/>
<path d="M12 19.5V18H10.5V19.5H6V21H16.5V19.5H12Z" fill="#F5F38E"/>
<path d="M4.5 10.5H3V22.5H4.5V10.5Z" fill="#F7FEFF"/>
<path d="M21 18H19.5V19.5H21V18Z" fill="#F7FEFF"/>
<path d="M16.5 18V21H6V10.5H4.5V22.5H18V19.5H19.5V18H16.5Z" fill="#231E2B"/>
<path d="M22.5 16.5H21V18H22.5V16.5Z" fill="#F7FEFF"/>
<path d="M21 16.5H19.5V18H21V16.5Z" fill="#231E2B"/>
<path d="M18 16.5H16.5V18H18V16.5Z" fill="#CF8934"/>
<path d="M15 16.5V15H16.5V12H15V10.5H16.5V9H6V19.5H10.5V18H12V16.5H13.5V18H12V19.5H16.5V16.5H15ZM7.5 12H9V13.5H7.5V12ZM7.5 15H9V16.5H7.5V15ZM10.5 15V13.5H12V12H13.5V13.5H12V15H10.5Z" fill="#E2B436"/>
<path d="M13.5 16.5H12V18H13.5V16.5Z" fill="#F5F38E"/>
<path d="M16.5 15H15V16.5H16.5V15Z" fill="#F5F38E"/>
<path d="M9 15H7.5V16.5H9V15Z" fill="#F5F38E"/>
<path d="M22.5 10.5H21V16.5H22.5V10.5Z" fill="#231E2B"/>
<path d="M12 13.5H10.5V15H12V13.5Z" fill="#F5F38E"/>
<path d="M16.5 16.5H18V15H19.5V12H16.5V16.5Z" fill="#231E2B"/>
<path d="M13.5 12H12V13.5H13.5V12Z" fill="#F5F38E"/>
<path d="M9 12H7.5V13.5H9V12Z" fill="#F5F38E"/>
<path d="M24 10.5H22.5V16.5H24V10.5Z" fill="#F7FEFF"/>
<path d="M18 10.5V12H19.5V15H18V18H19.5V16.5H21V10.5H18Z" fill="#E2B436"/>
<path d="M18 10.5H16.5V12H18V10.5Z" fill="#CF8934"/>
<path d="M16.5 10.5H15V12H16.5V10.5Z" fill="#F5F38E"/>
<path d="M22.5 9H21V10.5H22.5V9Z" fill="#F7FEFF"/>
<path d="M18 9V7.5H16.5V10.5H21V9H18Z" fill="#231E2B"/>
<path d="M4.5 4.5H3V10.5H4.5V4.5Z" fill="#231E2B"/>
<path d="M16.5 7.5H6V9H16.5V7.5Z" fill="#CF8934"/>
<path d="M6 7.5H18V4.5H16.5V3H6V4.5H4.5V10.5H6V7.5Z" fill="#F7FEFF"/>
<path d="M3 4.5H1.5V10.5H3V4.5Z" fill="#F7FEFF"/>
<path d="M19.5 7.5H18V9H21V4.5H19.5V7.5Z" fill="#F7FEFF"/>
<path d="M19.5 4.5H18V7.5H19.5V4.5Z" fill="#231E2B"/>
<path d="M19.5 3H18V4.5H19.5V3Z" fill="#F7FEFF"/>
<path d="M18 3H16.5V4.5H18V3Z" fill="#231E2B"/>
<path d="M6 3H4.5V4.5H6V3Z" fill="#231E2B"/>
<path d="M4.5 3H3V4.5H4.5V3Z" fill="#F7FEFF"/>
<path d="M18 1.5H16.5V3H18V1.5Z" fill="#F7FEFF"/>
<path d="M16.5 1.5H6V3H16.5V1.5Z" fill="#231E2B"/>
<path d="M6 1.5H4.5V3H6V1.5Z" fill="#F7FEFF"/>
<path d="M16.5 0H6V1.5H16.5V0Z" fill="#F7FEFF"/>
</svg>
