<svg width="29" height="28" viewBox="0 0 29 28" fill="none" xmlns="http://www.w3.org/2000/svg">
<g clip-path="url(#clip0_21_180)">
<path d="M26.75 24.5H2.25V26.25H26.75V24.5Z" fill="#F7FEFF"/>
<path d="M26.75 5.25H23.25V7H25V22.75H4V7H5.75V5.25H2.25V24.5H26.75V5.25Z" fill="#231E2B"/>
<path d="M25 21H4V22.75H25V21Z" fill="#E2B436"/>
<path d="M2.25 5.25H0.5V24.5H2.25V5.25Z" fill="#F7FEFF"/>
<path d="M25 19.25H4V21H25V19.25Z" fill="#F5F38E"/>
<path d="M25 17.5H4V19.25H25V17.5Z" fill="#CF8934"/>
<path d="M19.75 12.25H18V14H19.75V12.25Z" fill="#F5F38E"/>
<path d="M18 12.25H16.25V14H18V12.25Z" fill="#CF8934"/>
<path d="M12.75 12.25H11V14H12.75V12.25Z" fill="#CF8934"/>
<path d="M11 12.25H9.25V14H11V12.25Z" fill="#F5F38E"/>
<path d="M21.5 10.5H19.75V12.25H21.5V10.5Z" fill="#F5F38E"/>
<path d="M18 12.25H19.75V10.5H21.5V8.75H18V12.25Z" fill="#231E2B"/>
<path d="M18 8.75H16.25V12.25H18V8.75Z" fill="#F5F38E"/>
<path d="M12.75 8.75H11V12.25H12.75V8.75Z" fill="#F5F38E"/>
<path d="M9.25 10.5H7.5V12.25H9.25V10.5Z" fill="#F5F38E"/>
<path d="M23.25 10.5H21.5V12.25H19.75V14H16.25V7H14.5V8.75H12.75V14H9.25V12.25H7.5V10.5H5.75V8.75H4V17.5H25V8.75H23.25V10.5Z" fill="#E2B436"/>
<path d="M23.25 8.75H21.5V10.5H23.25V8.75Z" fill="#F5F38E"/>
<path d="M9.25 10.5V12.25H11V8.75H7.5V10.5H9.25Z" fill="#231E2B"/>
<path d="M7.5 8.75H5.75V10.5H7.5V8.75Z" fill="#F5F38E"/>
<path d="M25 7H23.25V8.75H25V7Z" fill="#F5F38E"/>
<path d="M23.25 7H21.5V8.75H23.25V7Z" fill="#231E2B"/>
<path d="M18 8.75H21.5V7H19.75V5.25H18V8.75Z" fill="#F7FEFF"/>
<path d="M14.5 7H16.25V5.25H12.75V8.75H14.5V7Z" fill="#F5F38E"/>
<path d="M12.75 5.25H11V8.75H12.75V5.25Z" fill="#231E2B"/>
<path d="M11 8.75V5.25H9.25V7H7.5V8.75H11Z" fill="#F7FEFF"/>
<path d="M7.5 7H5.75V8.75H7.5V7Z" fill="#231E2B"/>
<path d="M5.75 7H4V8.75H5.75V7Z" fill="#F5F38E"/>
<path d="M28.5 5.25H26.75V24.5H28.5V5.25Z" fill="#F7FEFF"/>
<path d="M23.25 5.25H21.5V7H23.25V5.25Z" fill="#F7FEFF"/>
<path d="M18 5.25H16.25V8.75H18V5.25Z" fill="#231E2B"/>
<path d="M7.5 5.25H5.75V7H7.5V5.25Z" fill="#F7FEFF"/>
<path d="M26.75 3.5H23.25V5.25H26.75V3.5Z" fill="#F7FEFF"/>
<path d="M18 3.5H16.25V5.25H18V3.5Z" fill="#F7FEFF"/>
<path d="M16.25 3.5H12.75V5.25H16.25V3.5Z" fill="#231E2B"/>
<path d="M12.75 3.5H11V5.25H12.75V3.5Z" fill="#F7FEFF"/>
<path d="M5.75 3.5H2.25V5.25H5.75V3.5Z" fill="#F7FEFF"/>
<path d="M16.25 1.75H12.75V3.5H16.25V1.75Z" fill="#F7FEFF"/>
</g>
<defs>
<clipPath id="clip0_21_180">
<rect width="28" height="28" fill="white" transform="translate(0.5)"/>
</clipPath>
</defs>
</svg>
