<svg width="12" height="12" viewBox="0 0 12 12" fill="none" xmlns="http://www.w3.org/2000/svg">
<g clip-path="url(#clip0_102_1749)">
<path d="M9.75 11.25H8.25V12H9.75V11.25Z" fill="#F7FEFF"/>
<path d="M3.75 11.25H2.25V12H3.75V11.25Z" fill="#F7FEFF"/>
<path d="M10.5 10.5H9.75V11.25H10.5V10.5Z" fill="#F7FEFF"/>
<path d="M9.75 10.5H8.25V11.25H9.75V10.5Z" fill="#231E2B"/>
<path d="M8.25 10.5H7.5V11.25H8.25V10.5Z" fill="#F7FEFF"/>
<path d="M4.5 10.5H3.75V11.25H4.5V10.5Z" fill="#F7FEFF"/>
<path d="M3.75 10.5H2.25V11.25H3.75V10.5Z" fill="#231E2B"/>
<path d="M2.25 10.5H1.5V11.25H2.25V10.5Z" fill="#F7FEFF"/>
<path d="M11.25 9.75H10.5V10.5H11.25V9.75Z" fill="#F7FEFF"/>
<path d="M10.5 9.75H9.75V10.5H10.5V9.75Z" fill="#231E2B"/>
<path d="M9.75 9.75H8.25V10.5H9.75V9.75Z" fill="#892727"/>
<path d="M8.25 9.75H7.5V10.5H8.25V9.75Z" fill="#231E2B"/>
<path d="M7.5 9.75H6.75V10.5H7.5V9.75Z" fill="#F7FEFF"/>
<path d="M5.25 9.75H4.5V10.5H5.25V9.75Z" fill="#F7FEFF"/>
<path d="M4.5 9.75H3.75V10.5H4.5V9.75Z" fill="#231E2B"/>
<path d="M3.75 9.75H2.25V10.5H3.75V9.75Z" fill="#892727"/>
<path d="M2.25 9.75H1.5V10.5H2.25V9.75Z" fill="#231E2B"/>
<path d="M1.5 9.75H0.75V10.5H1.5V9.75Z" fill="#F7FEFF"/>
<path d="M12 8.25H11.25V9.75H12V8.25Z" fill="#F7FEFF"/>
<path d="M10.5 9H9.75V9.75H10.5V9Z" fill="#892727"/>
<path d="M8.25 9H7.5V9.75H8.25V9Z" fill="#892727"/>
<path d="M7.5 9H6.75V9.75H7.5V9Z" fill="#231E2B"/>
<path d="M6.75 9H5.25V9.75H6.75V9Z" fill="#F7FEFF"/>
<path d="M5.25 9H4.5V9.75H5.25V9Z" fill="#231E2B"/>
<path d="M4.5 9H3.75V9.75H4.5V9Z" fill="#892727"/>
<path d="M2.25 9H1.5V9.75H2.25V9Z" fill="#892727"/>
<path d="M1.5 8.25H0.75V9.75H1.5V8.25Z" fill="#231E2B"/>
<path d="M11.25 8.25H10.5V9.75H11.25V8.25Z" fill="#231E2B"/>
<path d="M10.5 8.25H9.75V9H10.5V8.25Z" fill="#CF6B55"/>
<path d="M7.5 8.25H6.75V9H7.5V8.25Z" fill="#892727"/>
<path d="M6.75 8.25H5.25V9H6.75V8.25Z" fill="#231E2B"/>
<path d="M5.25 8.25H4.5V9H5.25V8.25Z" fill="#892727"/>
<path d="M2.25 8.25H1.5V9H2.25V8.25Z" fill="#CF6B55"/>
<path d="M0.75 8.25H0V9.75H0.75V8.25Z" fill="#F7FEFF"/>
<path d="M11.25 7.5H10.5V8.25H11.25V7.5Z" fill="#F7FEFF"/>
<path d="M10.5 7.5H9.75V8.25H10.5V7.5Z" fill="#231E2B"/>
<path d="M9.75 7.5H9V8.25H9.75V7.5Z" fill="#CF6B55"/>
<path d="M6.75 7.5H5.25V8.25H6.75V7.5Z" fill="#892727"/>
<path d="M3 7.5H2.25V8.25H3V7.5Z" fill="#CF6B55"/>
<path d="M2.25 7.5H1.5V8.25H2.25V7.5Z" fill="#231E2B"/>
<path d="M1.5 7.5H0.75V8.25H1.5V7.5Z" fill="#F7FEFF"/>
<path d="M10.5 6.75H9.75V7.5H10.5V6.75Z" fill="#F7FEFF"/>
<path d="M9.75 6.75H9V7.5H9.75V6.75Z" fill="#231E2B"/>
<path d="M9 6.75H8.25V7.5H9V6.75Z" fill="#CF6B55"/>
<path d="M3.75 6.75H3V7.5H3.75V6.75Z" fill="#CF6B55"/>
<path d="M3 6.75H2.25V7.5H3V6.75Z" fill="#231E2B"/>
<path d="M2.25 6.75H1.5V7.5H2.25V6.75Z" fill="#F7FEFF"/>
<path d="M3.75 5.25H3V6.75H3.75V5.25Z" fill="#231E2B"/>
<path d="M3 5.25H2.25V6.75H3V5.25Z" fill="#F7FEFF"/>
<path d="M9.75 5.25H9V6.75H9.75V5.25Z" fill="#F7FEFF"/>
<path d="M9 5.25H8.25V6.75H9V5.25Z" fill="#231E2B"/>
<path d="M8.25 5.25H7.5V6H8.25V5.25Z" fill="#892727"/>
<path d="M4.5 5.25H3.75V6H4.5V5.25Z" fill="#892727"/>
<path d="M10.5 4.5H9.75V5.25H10.5V4.5Z" fill="#F7FEFF"/>
<path d="M9.75 4.5H9V5.25H9.75V4.5Z" fill="#231E2B"/>
<path d="M9 4.5H8.25V5.25H9V4.5Z" fill="#892727"/>
<path d="M3.75 4.5H3V5.25H3.75V4.5Z" fill="#892727"/>
<path d="M3 4.5H2.25V5.25H3V4.5Z" fill="#231E2B"/>
<path d="M2.25 4.5H1.5V5.25H2.25V4.5Z" fill="#F7FEFF"/>
<path d="M11.25 3.75H10.5V4.5H11.25V3.75Z" fill="#F7FEFF"/>
<path d="M10.5 3.75H9.75V4.5H10.5V3.75Z" fill="#231E2B"/>
<path d="M9.75 3.75H9V4.5H9.75V3.75Z" fill="#892727"/>
<path d="M6.75 3.75H5.25V4.5H6.75V3.75Z" fill="#CF6B55"/>
<path d="M3 3.75H2.25V4.5H3V3.75Z" fill="#892727"/>
<path d="M2.25 3.75H1.5V4.5H2.25V3.75Z" fill="#231E2B"/>
<path d="M1.5 3.75H0.75V4.5H1.5V3.75Z" fill="#F7FEFF"/>
<path d="M10.5 3H9.75V3.75H10.5V3Z" fill="#892727"/>
<path d="M7.5 3H6.75V3.75H7.5V3Z" fill="#CF6B55"/>
<path d="M6.75 3H5.25V3.75H6.75V3Z" fill="#231E2B"/>
<path d="M5.25 3H4.5V3.75H5.25V3Z" fill="#CF6B55"/>
<path d="M2.25 3H1.5V3.75H2.25V3Z" fill="#892727"/>
<path d="M1.5 2.25H0.75V3.75H1.5V2.25Z" fill="#231E2B"/>
<path d="M12 2.25H11.25V3.75H12V2.25Z" fill="#F7FEFF"/>
<path d="M11.25 2.25H10.5V3.75H11.25V2.25Z" fill="#231E2B"/>
<path d="M10.5 2.25H9.75V3H10.5V2.25Z" fill="#CF6B55"/>
<path d="M9.75 2.25H8.25V3H7.5V3.75H6.75V4.5H5.25V3.75H4.5V3H3.75V2.25H1.5V3H2.25V3.75H3V4.5H3.75V5.25H4.5V6H3.75V7.5H3V8.25H2.25V9.75H3.75V9H4.5V8.25H5.25V7.5H6.75V8.25H7.5V9H8.25V9.75H9.75V8.25H9V7.5H8.25V6H7.5V5.25H8.25V4.5H9V3.75H9.75V2.25Z" fill="#B0392E"/>
<path d="M8.25 2.25H7.5V3H8.25V2.25Z" fill="#CF6B55"/>
<path d="M7.5 2.25H6.75V3H7.5V2.25Z" fill="#231E2B"/>
<path d="M6.75 2.25H5.25V3H6.75V2.25Z" fill="#F7FEFF"/>
<path d="M5.25 2.25H4.5V3H5.25V2.25Z" fill="#231E2B"/>
<path d="M4.5 2.25H3.75V3H4.5V2.25Z" fill="#CF6B55"/>
<path d="M0.75 2.25H0V3.75H0.75V2.25Z" fill="#F7FEFF"/>
<path d="M11.25 1.5H10.5V2.25H11.25V1.5Z" fill="#F7FEFF"/>
<path d="M10.5 1.5H9.75V2.25H10.5V1.5Z" fill="#231E2B"/>
<path d="M9.75 1.5H8.25V2.25H9.75V1.5Z" fill="#CF6B55"/>
<path d="M8.25 1.5H7.5V2.25H8.25V1.5Z" fill="#231E2B"/>
<path d="M7.5 1.5H6.75V2.25H7.5V1.5Z" fill="#F7FEFF"/>
<path d="M5.25 1.5H4.5V2.25H5.25V1.5Z" fill="#F7FEFF"/>
<path d="M4.5 1.5H3.75V2.25H4.5V1.5Z" fill="#231E2B"/>
<path d="M3.75 1.5H2.25V2.25H3.75V1.5Z" fill="#CF6B55"/>
<path d="M2.25 1.5H1.5V2.25H2.25V1.5Z" fill="#231E2B"/>
<path d="M1.5 1.5H0.75V2.25H1.5V1.5Z" fill="#F7FEFF"/>
<path d="M10.5 0.75H9.75V1.5H10.5V0.75Z" fill="#F7FEFF"/>
<path d="M9.75 0.75H8.25V1.5H9.75V0.75Z" fill="#231E2B"/>
<path d="M8.25 0.75H7.5V1.5H8.25V0.75Z" fill="#F7FEFF"/>
<path d="M4.5 0.75H3.75V1.5H4.5V0.75Z" fill="#F7FEFF"/>
<path d="M3.75 0.75H2.25V1.5H3.75V0.75Z" fill="#231E2B"/>
<path d="M2.25 0.75H1.5V1.5H2.25V0.75Z" fill="#F7FEFF"/>
<path d="M9.75 0H8.25V0.75H9.75V0Z" fill="#F7FEFF"/>
<path d="M3.75 0H2.25V0.75H3.75V0Z" fill="#F7FEFF"/>
</g>
<defs>
<clipPath id="clip0_102_1749">
<rect width="12" height="12" fill="white"/>
</clipPath>
</defs>
</svg>
