<svg width="24" height="24" viewBox="0 0 24 24" fill="none" xmlns="http://www.w3.org/2000/svg">
<g clip-path="url(#clip0_5_2250)">
<path d="M15 22.5H9V24H15V22.5Z" fill="#F7FEFF"/>
<path d="M18 21H15V22.5H18V21Z" fill="#F7FEFF"/>
<path d="M15 21H9V22.5H15V21Z" fill="#231E2B"/>
<path d="M9 21H6V22.5H9V21Z" fill="#F7FEFF"/>
<path d="M19.5 19.5H18V21H19.5V19.5Z" fill="#F7FEFF"/>
<path d="M18 19.5H15V21H18V19.5Z" fill="#231E2B"/>
<path d="M15 19.5H9V21H15V19.5Z" fill="#CF8934"/>
<path d="M9 19.5H6V21H9V19.5Z" fill="#231E2B"/>
<path d="M6 19.5H4.5V21H6V19.5Z" fill="#F7FEFF"/>
<path d="M21 18H19.5V19.5H21V18Z" fill="#F7FEFF"/>
<path d="M19.5 18H18V19.5H19.5V18Z" fill="#231E2B"/>
<path d="M18 18H15V19.5H18V18Z" fill="#CF8934"/>
<path d="M9 18H6V19.5H9V18Z" fill="#CF8934"/>
<path d="M6 18H4.5V19.5H6V18Z" fill="#231E2B"/>
<path d="M4.5 18H3V19.5H4.5V18Z" fill="#F7FEFF"/>
<path d="M19.5 16.5H18V18H19.5V16.5Z" fill="#CF8934"/>
<path d="M13.5 16.5H12V18H13.5V16.5Z" fill="#3B2130"/>
<path d="M12 16.5H10.5V18H12V16.5Z" fill="#784028"/>
<path d="M6 16.5H4.5V18H6V16.5Z" fill="#CF8934"/>
<path d="M4.5 15H3V18H4.5V15Z" fill="#231E2B"/>
<path d="M22.5 15H21V18H22.5V15Z" fill="#F7FEFF"/>
<path d="M21 15H19.5V18H21V15Z" fill="#231E2B"/>
<path d="M13.5 15H12V16.5H13.5V15Z" fill="#522B29"/>
<path d="M12 15H10.5V16.5H12V15Z" fill="#3B2130"/>
<path d="M3 15H1.5V18H3V15Z" fill="#F7FEFF"/>
<path d="M21 13.5H19.5V15H21V13.5Z" fill="#CF8934"/>
<path d="M4.5 13.5H3V15H4.5V13.5Z" fill="#CF8934"/>
<path d="M3 9H1.5V15H3V9Z" fill="#231E2B"/>
<path d="M22.5 9H21V15H22.5V9Z" fill="#231E2B"/>
<path d="M1.5 9H0V15H1.5V9Z" fill="#F7FEFF"/>
<path d="M12 10.5H10.5V12H12V10.5Z" fill="#784028"/>
<path d="M24 9H22.5V15H24V9Z" fill="#F7FEFF"/>
<path d="M21 9H19.5V10.5H21V9Z" fill="#F5F38E"/>
<path d="M19.5 7.5H18V6H15V7.5H16.5V10.5H15V12H13.5V13.5H10.5V10.5H12V9H9V6H6V7.5H4.5V10.5H3V13.5H4.5V16.5H6V18H9V19.5H15V18H18V16.5H19.5V13.5H21V10.5H19.5V7.5ZM10.5 18V15H13.5V18H10.5Z" fill="#E2B436"/>
<path d="M16.5 7.5H15V10.5H16.5V7.5Z" fill="#522B29"/>
<path d="M13.5 9H12V10.5H13.5V9Z" fill="#784028"/>
<path d="M4.5 9H3V10.5H4.5V9Z" fill="#F5F38E"/>
<path d="M22.5 6H21V9H22.5V6Z" fill="#F7FEFF"/>
<path d="M4.5 6H3V9H4.5V6Z" fill="#231E2B"/>
<path d="M3 6H1.5V9H3V6Z" fill="#F7FEFF"/>
<path d="M21 6H19.5V9H21V6Z" fill="#231E2B"/>
<path d="M19.5 6H18V7.5H19.5V6Z" fill="#F5F38E"/>
<path d="M15 6H13.5V7.5H15V6Z" fill="#522B29"/>
<path d="M13.5 6H9V9H13.5V10.5H12V12H10.5V13.5H13.5V12H15V7.5H13.5V6Z" fill="#3B2130"/>
<path d="M6 6H4.5V7.5H6V6Z" fill="#F5F38E"/>
<path d="M21 4.5H19.5V6H21V4.5Z" fill="#F7FEFF"/>
<path d="M19.5 4.5H18V6H19.5V4.5Z" fill="#231E2B"/>
<path d="M18 4.5H15V6H18V4.5Z" fill="#F5F38E"/>
<path d="M15 4.5H9V6H15V4.5Z" fill="#E2B436"/>
<path d="M9 4.5H6V6H9V4.5Z" fill="#F5F38E"/>
<path d="M6 4.5H4.5V6H6V4.5Z" fill="#231E2B"/>
<path d="M4.5 4.5H3V6H4.5V4.5Z" fill="#F7FEFF"/>
<path d="M19.5 3H18V4.5H19.5V3Z" fill="#F7FEFF"/>
<path d="M18 3H15V4.5H18V3Z" fill="#231E2B"/>
<path d="M15 3H9V4.5H15V3Z" fill="#F5F38E"/>
<path d="M9 3H6V4.5H9V3Z" fill="#231E2B"/>
<path d="M6 3H4.5V4.5H6V3Z" fill="#F7FEFF"/>
<path d="M18 1.5H15V3H18V1.5Z" fill="#F7FEFF"/>
<path d="M15 1.5H9V3H15V1.5Z" fill="#231E2B"/>
<path d="M9 1.5H6V3H9V1.5Z" fill="#F7FEFF"/>
<path d="M15 0H9V1.5H15V0Z" fill="#F7FEFF"/>
</g>
<defs>
<clipPath id="clip0_5_2250">
<rect width="24" height="24" fill="white"/>
</clipPath>
</defs>
</svg>
