<svg width="24" height="24" viewBox="0 0 24 24" fill="none" xmlns="http://www.w3.org/2000/svg">
<path d="M13.5 22.5H10.5V24H13.5V22.5Z" fill="#F7FEFF"/>
<path d="M16.5 21H13.5V22.5H16.5V21Z" fill="#F7FEFF"/>
<path d="M13.5 21H10.5V22.5H13.5V21Z" fill="#231E2B"/>
<path d="M10.5 21H9V22.5H10.5V21Z" fill="#F7FEFF"/>
<path d="M18 19.5H16.5V21H18V19.5Z" fill="#F7FEFF"/>
<path d="M16.5 19.5H13.5V21H16.5V19.5Z" fill="#231E2B"/>
<path d="M13.5 19.5H12V21H13.5V19.5Z" fill="#CF8934"/>
<path d="M10.5 10.5H6V12H9V21H10.5V10.5Z" fill="#231E2B"/>
<path d="M19.5 18H18V19.5H19.5V18Z" fill="#F7FEFF"/>
<path d="M18 18H16.5V19.5H18V18Z" fill="#231E2B"/>
<path d="M16.5 18H15V19.5H16.5V18Z" fill="#F5F38E"/>
<path d="M9 12H6V13.5H7.5V21H9V12Z" fill="#F7FEFF"/>
<path d="M18 16.5H16.5V18H18V16.5Z" fill="#F7FEFF"/>
<path d="M16.5 16.5H15V18H16.5V16.5Z" fill="#231E2B"/>
<path d="M15 16.5H13.5V18H15V16.5Z" fill="#CF8934"/>
<path d="M19.5 15H18V16.5H19.5V15Z" fill="#F7FEFF"/>
<path d="M18 15H16.5V16.5H18V15Z" fill="#231E2B"/>
<path d="M16.5 15H13.5V16.5H16.5V15Z" fill="#F5F38E"/>
<path d="M15 12V13.5H16.5V15H18V12H15Z" fill="#F7FEFF"/>
<path d="M13.5 12H12V15H13.5V12Z" fill="#F5F38E"/>
<path d="M19.5 10.5H18V12H19.5V10.5Z" fill="#F7FEFF"/>
<path d="M13.5 10.5V15H16.5V13.5H15V12H18V10.5H13.5Z" fill="#231E2B"/>
<path d="M6 10.5H4.5V12H6V10.5Z" fill="#F7FEFF"/>
<path d="M21 9H19.5V10.5H21V9Z" fill="#F7FEFF"/>
<path d="M19.5 9H18V10.5H19.5V9Z" fill="#231E2B"/>
<path d="M18 9H13.5V10.5H18V9Z" fill="#CF8934"/>
<path d="M10.5 9H6V10.5H10.5V9Z" fill="#CF8934"/>
<path d="M6 9H4.5V10.5H6V9Z" fill="#231E2B"/>
<path d="M4.5 9H3V10.5H4.5V9Z" fill="#F7FEFF"/>
<path d="M19.5 7.5H18V9H19.5V7.5Z" fill="#CF8934"/>
<path d="M12 7.5H7.5V9H12V7.5Z" fill="#F5F38E"/>
<path d="M6 7.5H4.5V9H6V7.5Z" fill="#CF8934"/>
<path d="M4.5 4.5H3V9H4.5V4.5Z" fill="#231E2B"/>
<path d="M22.5 4.5H21V9H22.5V4.5Z" fill="#F7FEFF"/>
<path d="M16.5 6H7.5V7.5H16.5V6Z" fill="#231E2B"/>
<path d="M3 4.5H1.5V9H3V4.5Z" fill="#F7FEFF"/>
<path d="M21 4.5H19.5V9H21V4.5Z" fill="#231E2B"/>
<path d="M19.5 4.5H18V6H19.5V4.5Z" fill="#F5F38E"/>
<path d="M16.5 7.5H12V9H10.5V21H12V19.5H15V18H13.5V15H12V12H13.5V9H18V7.5H19.5V6H18V4.5H16.5V7.5Z" fill="#E2B436"/>
<path d="M16.5 4.5H7.5V6H16.5V4.5Z" fill="#CF8934"/>
<path d="M4.5 4.5V7.5H6V9H7.5V4.5H13.5V3H6V4.5H4.5Z" fill="#E2B436"/>
<path d="M21 3H19.5V4.5H21V3Z" fill="#F7FEFF"/>
<path d="M19.5 3H18V4.5H19.5V3Z" fill="#231E2B"/>
<path d="M18 3H13.5V4.5H18V3Z" fill="#F5F38E"/>
<path d="M6 3H4.5V4.5H6V3Z" fill="#231E2B"/>
<path d="M4.5 3H3V4.5H4.5V3Z" fill="#F7FEFF"/>
<path d="M19.5 1.5H18V3H19.5V1.5Z" fill="#F7FEFF"/>
<path d="M18 1.5H6V3H18V1.5Z" fill="#231E2B"/>
<path d="M6 1.5H4.5V3H6V1.5Z" fill="#F7FEFF"/>
<path d="M18 0H6V1.5H18V0Z" fill="#F7FEFF"/>
</svg>
