<svg width="50" height="54" viewBox="0 0 50 54" fill="none" xmlns="http://www.w3.org/2000/svg">
<g filter="url(#filter0_d_104_2716)">
<rect width="50" height="50" fill="#BA28B7" shape-rendering="crispEdges"/>
<g clip-path="url(#clip0_104_2716)">
<path d="M28.5 37.25H21.5V39H28.5V37.25Z" fill="#F7FEFF"/>
<path d="M32 35.5H28.5V37.25H32V35.5Z" fill="#F7FEFF"/>
<path d="M28.5 35.5H21.5V37.25H28.5V35.5Z" fill="#231E2B"/>
<path d="M21.5 35.5H18V37.25H21.5V35.5Z" fill="#F7FEFF"/>
<path d="M33.75 33.75H32V35.5H33.75V33.75Z" fill="#F7FEFF"/>
<path d="M32 33.75H28.5V35.5H32V33.75Z" fill="#231E2B"/>
<path d="M28.5 33.75H21.5V35.5H28.5V33.75Z" fill="#CF8934"/>
<path d="M21.5 33.75H18V35.5H21.5V33.75Z" fill="#231E2B"/>
<path d="M18 33.75H16.25V35.5H18V33.75Z" fill="#F7FEFF"/>
<path d="M35.5 32H33.75V33.75H35.5V32Z" fill="#F7FEFF"/>
<path d="M33.75 32H32V33.75H33.75V32Z" fill="#231E2B"/>
<path d="M32 32H28.5V33.75H32V32Z" fill="#CF8934"/>
<path d="M21.5 32H18V33.75H21.5V32Z" fill="#CF8934"/>
<path d="M18 32H16.25V33.75H18V32Z" fill="#231E2B"/>
<path d="M16.25 32H14.5V33.75H16.25V32Z" fill="#F7FEFF"/>
<path d="M33.75 30.25H32V32H33.75V30.25Z" fill="#CF8934"/>
<path d="M26.75 30.25H25V32H26.75V30.25Z" fill="#3B2130"/>
<path d="M25 30.25H23.25V32H25V30.25Z" fill="#784028"/>
<path d="M18 30.25H16.25V32H18V30.25Z" fill="#CF8934"/>
<path d="M16.25 28.5H14.5V32H16.25V28.5Z" fill="#231E2B"/>
<path d="M37.25 28.5H35.5V32H37.25V28.5Z" fill="#F7FEFF"/>
<path d="M35.5 28.5H33.75V32H35.5V28.5Z" fill="#231E2B"/>
<path d="M26.75 28.5H25V30.25H26.75V28.5Z" fill="#522B29"/>
<path d="M25 28.5H23.25V30.25H25V28.5Z" fill="#3B2130"/>
<path d="M14.5 28.5H12.75V32H14.5V28.5Z" fill="#F7FEFF"/>
<path d="M35.5 26.75H33.75V28.5H35.5V26.75Z" fill="#CF8934"/>
<path d="M16.25 26.75H14.5V28.5H16.25V26.75Z" fill="#CF8934"/>
<path d="M14.5 21.5H12.75V28.5H14.5V21.5Z" fill="#231E2B"/>
<path d="M37.25 21.5H35.5V28.5H37.25V21.5Z" fill="#231E2B"/>
<path d="M12.75 21.5H11V28.5H12.75V21.5Z" fill="#F7FEFF"/>
<path d="M25 23.25H23.25V25H25V23.25Z" fill="#784028"/>
<path d="M39 21.5H37.25V28.5H39V21.5Z" fill="#F7FEFF"/>
<path d="M35.5 21.5H33.75V23.25H35.5V21.5Z" fill="#F5F38E"/>
<path d="M33.75 19.75H32V18H28.5V19.75H30.25V23.25H28.5V25H26.75V26.75H23.25V23.25H25V21.5H21.5V18H18V19.75H16.25V23.25H14.5V26.75H16.25V30.25H18V32H21.5V33.75H28.5V32H32V30.25H33.75V26.75H35.5V23.25H33.75V19.75ZM23.25 32V28.5H26.75V32H23.25Z" fill="#E2B436"/>
<path d="M30.25 19.75H28.5V23.25H30.25V19.75Z" fill="#522B29"/>
<path d="M26.75 21.5H25V23.25H26.75V21.5Z" fill="#784028"/>
<path d="M16.25 21.5H14.5V23.25H16.25V21.5Z" fill="#F5F38E"/>
<path d="M37.25 18H35.5V21.5H37.25V18Z" fill="#F7FEFF"/>
<path d="M16.25 18H14.5V21.5H16.25V18Z" fill="#231E2B"/>
<path d="M14.5 18H12.75V21.5H14.5V18Z" fill="#F7FEFF"/>
<path d="M35.5 18H33.75V21.5H35.5V18Z" fill="#231E2B"/>
<path d="M33.75 18H32V19.75H33.75V18Z" fill="#F5F38E"/>
<path d="M28.5 18H26.75V19.75H28.5V18Z" fill="#522B29"/>
<path d="M26.75 18H21.5V21.5H26.75V23.25H25V25H23.25V26.75H26.75V25H28.5V19.75H26.75V18Z" fill="#3B2130"/>
<path d="M18 18H16.25V19.75H18V18Z" fill="#F5F38E"/>
<path d="M35.5 16.25H33.75V18H35.5V16.25Z" fill="#F7FEFF"/>
<path d="M33.75 16.25H32V18H33.75V16.25Z" fill="#231E2B"/>
<path d="M32 16.25H28.5V18H32V16.25Z" fill="#F5F38E"/>
<path d="M28.5 16.25H21.5V18H28.5V16.25Z" fill="#E2B436"/>
<path d="M21.5 16.25H18V18H21.5V16.25Z" fill="#F5F38E"/>
<path d="M18 16.25H16.25V18H18V16.25Z" fill="#231E2B"/>
<path d="M16.25 16.25H14.5V18H16.25V16.25Z" fill="#F7FEFF"/>
<path d="M33.75 14.5H32V16.25H33.75V14.5Z" fill="#F7FEFF"/>
<path d="M32 14.5H28.5V16.25H32V14.5Z" fill="#231E2B"/>
<path d="M28.5 14.5H21.5V16.25H28.5V14.5Z" fill="#F5F38E"/>
<path d="M21.5 14.5H18V16.25H21.5V14.5Z" fill="#231E2B"/>
<path d="M18 14.5H16.25V16.25H18V14.5Z" fill="#F7FEFF"/>
<path d="M32 12.75H28.5V14.5H32V12.75Z" fill="#F7FEFF"/>
<path d="M28.5 12.75H21.5V14.5H28.5V12.75Z" fill="#231E2B"/>
<path d="M21.5 12.75H18V14.5H21.5V12.75Z" fill="#F7FEFF"/>
<path d="M28.5 11H21.5V12.75H28.5V11Z" fill="#F7FEFF"/>
</g>
<rect x="1" y="1" width="48" height="48" stroke="#F09CDB" stroke-width="2" shape-rendering="crispEdges"/>
</g>
<defs>
<filter id="filter0_d_104_2716" x="0" y="0" width="50" height="54" filterUnits="userSpaceOnUse" color-interpolation-filters="sRGB">
<feFlood flood-opacity="0" result="BackgroundImageFix"/>
<feColorMatrix in="SourceAlpha" type="matrix" values="0 0 0 0 0 0 0 0 0 0 0 0 0 0 0 0 0 0 127 0" result="hardAlpha"/>
<feOffset dy="4"/>
<feComposite in2="hardAlpha" operator="out"/>
<feColorMatrix type="matrix" values="0 0 0 0 0 0 0 0 0 0 0 0 0 0 0 0 0 0 0.5 0"/>
<feBlend mode="normal" in2="BackgroundImageFix" result="effect1_dropShadow_104_2716"/>
<feBlend mode="normal" in="SourceGraphic" in2="effect1_dropShadow_104_2716" result="shape"/>
</filter>
<clipPath id="clip0_104_2716">
<rect width="28" height="28" fill="white" transform="translate(11 11)"/>
</clipPath>
</defs>
</svg>
