<svg width="112" height="56" viewBox="0 0 112 56" fill="none" xmlns="http://www.w3.org/2000/svg">
<g filter="url(#filter0_d_104_2781)">
<rect width="112" height="52" fill="#BA28B7" shape-rendering="crispEdges"/>
<g filter="url(#filter1_d_104_2781)">
<path d="M53.536 23.464H59.536V24.964H61.036V29.536H59.536V31.036H53.464V29.536H51.964V27.964H53.536V29.464H59.464V25.036H53.464V23.536H51.964V20.464H53.464V18.964H59.536V20.464H61.036V22.036H59.464V20.536H53.536V23.464ZM63.064 18.964H64.636V23.464H69.136V24.964H70.636V31.036H69.064V25.036H64.636V31.036H63.064V18.964ZM74.236 29.464H78.664V28.036H74.236V29.464ZM74.236 26.464H78.664V25.036H74.236V26.464ZM72.664 24.964H74.164V23.464H78.736V24.964H80.236V31.036H74.164V29.536H72.664V27.964H74.164V26.536H72.664V24.964ZM83.836 31.036H82.264V23.464H86.836V24.964H88.336V26.536H86.764V25.036H83.836V31.036ZM91.936 26.464H96.364V25.036H91.936V26.464ZM91.936 29.464H97.936V31.036H91.864V29.536H90.364V24.964H91.864V23.464H96.436V24.964H97.936V28.036H91.936V29.464Z" fill="white"/>
</g>
<path d="M33 39.25H17.25V41H33V39.25Z" fill="#F7FEFF"/>
<path d="M34.75 35.75H33V39.25H34.75V35.75Z" fill="#F7FEFF"/>
<path d="M26 35.75V34H24.25V35.75H19V37.5H31.25V35.75H26Z" fill="#F5F38E"/>
<path d="M17.25 25.25H15.5V39.25H17.25V25.25Z" fill="#F7FEFF"/>
<path d="M36.5 34H34.75V35.75H36.5V34Z" fill="#F7FEFF"/>
<path d="M31.25 34V37.5H19V25.25H17.25V39.25H33V35.75H34.75V34H31.25Z" fill="#231E2B"/>
<path d="M38.25 32.25H36.5V34H38.25V32.25Z" fill="#F7FEFF"/>
<path d="M36.5 32.25H34.75V34H36.5V32.25Z" fill="#231E2B"/>
<path d="M33 32.25H31.25V34H33V32.25Z" fill="#CF8934"/>
<path d="M29.5 32.25V30.5H31.25V27H29.5V25.25H31.25V23.5H19V35.75H24.25V34H26V32.25H27.75V34H26V35.75H31.25V32.25H29.5ZM20.75 27H22.5V28.75H20.75V27ZM20.75 30.5H22.5V32.25H20.75V30.5ZM24.25 30.5V28.75H26V27H27.75V28.75H26V30.5H24.25Z" fill="#E2B436"/>
<path d="M27.75 32.25H26V34H27.75V32.25Z" fill="#F5F38E"/>
<path d="M31.25 30.5H29.5V32.25H31.25V30.5Z" fill="#F5F38E"/>
<path d="M22.5 30.5H20.75V32.25H22.5V30.5Z" fill="#F5F38E"/>
<path d="M38.25 25.25H36.5V32.25H38.25V25.25Z" fill="#231E2B"/>
<path d="M26 28.75H24.25V30.5H26V28.75Z" fill="#F5F38E"/>
<path d="M31.25 32.25H33V30.5H34.75V27H31.25V32.25Z" fill="#231E2B"/>
<path d="M27.75 27H26V28.75H27.75V27Z" fill="#F5F38E"/>
<path d="M22.5 27H20.75V28.75H22.5V27Z" fill="#F5F38E"/>
<path d="M40 25.25H38.25V32.25H40V25.25Z" fill="#F7FEFF"/>
<path d="M33 25.25V27H34.75V30.5H33V34H34.75V32.25H36.5V25.25H33Z" fill="#E2B436"/>
<path d="M33 25.25H31.25V27H33V25.25Z" fill="#CF8934"/>
<path d="M31.25 25.25H29.5V27H31.25V25.25Z" fill="#F5F38E"/>
<path d="M38.25 23.5H36.5V25.25H38.25V23.5Z" fill="#F7FEFF"/>
<path d="M33 23.5V21.75H31.25V25.25H36.5V23.5H33Z" fill="#231E2B"/>
<path d="M17.25 18.25H15.5V25.25H17.25V18.25Z" fill="#231E2B"/>
<path d="M31.25 21.75H19V23.5H31.25V21.75Z" fill="#CF8934"/>
<path d="M19 21.75H33V18.25H31.25V16.5H19V18.25H17.25V25.25H19V21.75Z" fill="#F7FEFF"/>
<path d="M15.5 18.25H13.75V25.25H15.5V18.25Z" fill="#F7FEFF"/>
<path d="M34.75 21.75H33V23.5H36.5V18.25H34.75V21.75Z" fill="#F7FEFF"/>
<path d="M34.75 18.25H33V21.75H34.75V18.25Z" fill="#231E2B"/>
<path d="M34.75 16.5H33V18.25H34.75V16.5Z" fill="#F7FEFF"/>
<path d="M33 16.5H31.25V18.25H33V16.5Z" fill="#231E2B"/>
<path d="M19 16.5H17.25V18.25H19V16.5Z" fill="#231E2B"/>
<path d="M17.25 16.5H15.5V18.25H17.25V16.5Z" fill="#F7FEFF"/>
<path d="M33 14.75H31.25V16.5H33V14.75Z" fill="#F7FEFF"/>
<path d="M31.25 14.75H19V16.5H31.25V14.75Z" fill="#231E2B"/>
<path d="M19 14.75H17.25V16.5H19V14.75Z" fill="#F7FEFF"/>
<path d="M31.25 13H19V14.75H31.25V13Z" fill="#F7FEFF"/>
<rect x="1" y="1" width="110" height="50" stroke="#F09CDB" stroke-width="2" shape-rendering="crispEdges"/>
</g>
<defs>
<filter id="filter0_d_104_2781" x="0" y="0" width="112" height="56" filterUnits="userSpaceOnUse" color-interpolation-filters="sRGB">
<feFlood flood-opacity="0" result="BackgroundImageFix"/>
<feColorMatrix in="SourceAlpha" type="matrix" values="0 0 0 0 0 0 0 0 0 0 0 0 0 0 0 0 0 0 127 0" result="hardAlpha"/>
<feOffset dy="4"/>
<feComposite in2="hardAlpha" operator="out"/>
<feColorMatrix type="matrix" values="0 0 0 0 0 0 0 0 0 0 0 0 0 0 0 0 0 0 0.5 0"/>
<feBlend mode="normal" in2="BackgroundImageFix" result="effect1_dropShadow_104_2781"/>
<feBlend mode="normal" in="SourceGraphic" in2="effect1_dropShadow_104_2781" result="shape"/>
</filter>
<filter id="filter1_d_104_2781" x="51.964" y="18.964" width="45.972" height="14.072" filterUnits="userSpaceOnUse" color-interpolation-filters="sRGB">
<feFlood flood-opacity="0" result="BackgroundImageFix"/>
<feColorMatrix in="SourceAlpha" type="matrix" values="0 0 0 0 0 0 0 0 0 0 0 0 0 0 0 0 0 0 127 0" result="hardAlpha"/>
<feOffset dy="2"/>
<feComposite in2="hardAlpha" operator="out"/>
<feColorMatrix type="matrix" values="0 0 0 0 0 0 0 0 0 0 0 0 0 0 0 0 0 0 0.5 0"/>
<feBlend mode="normal" in2="BackgroundImageFix" result="effect1_dropShadow_104_2781"/>
<feBlend mode="normal" in="SourceGraphic" in2="effect1_dropShadow_104_2781" result="shape"/>
</filter>
</defs>
</svg>
