<svg width="33" height="32" viewBox="0 0 33 32" fill="none" xmlns="http://www.w3.org/2000/svg">
<path d="M22.5 30H18.5V32H22.5V30Z" fill="#F7FEFF"/>
<path d="M14.5 30H10.5V32H14.5V30Z" fill="#F7FEFF"/>
<path d="M18.5 28H14.5V30H18.5V28Z" fill="#F7FEFF"/>
<path d="M12.5 28V20H10.5V30H14.5V28H12.5Z" fill="#231E2B"/>
<path d="M22.5 20H20.5V28H18.5V30H22.5V20Z" fill="#231E2B"/>
<path d="M20.5 26H18.5V28H20.5V26Z" fill="#CF6B55"/>
<path d="M18.5 26H14.5V28H18.5V26Z" fill="#231E2B"/>
<path d="M14.5 26H12.5V28H14.5V26Z" fill="#CF6B55"/>
<path d="M10.5 20H8.5V30H10.5V20Z" fill="#F7FEFF"/>
<path d="M18.5 24H14.5V26H18.5V24Z" fill="#CF6B55"/>
<path d="M12.5 22V26H14.5V24H18.5V26H20.5V22H12.5Z" fill="#B0392E"/>
<path d="M24.5 20H22.5V30H24.5V20Z" fill="#F7FEFF"/>
<path d="M20.5 20H12.5V22H20.5V20Z" fill="#892727"/>
<path d="M26.5 18H24.5V20H26.5V18Z" fill="#F7FEFF"/>
<path d="M24.5 18H22.5V20H24.5V18Z" fill="#231E2B"/>
<path d="M22.5 18H10.5V20H22.5V18Z" fill="#CF8934"/>
<path d="M10.5 18H8.5V20H10.5V18Z" fill="#231E2B"/>
<path d="M8.5 18H6.5V20H8.5V18Z" fill="#F7FEFF"/>
<path d="M24.5 16H22.5V18H24.5V16Z" fill="#CF8934"/>
<path d="M10.5 18H22.5V16H24.5V8H22.5V6H10.5V8H8.5V16H10.5V18ZM12.5 14H14.5V12H12.5V10H14.5V8H18.5V14H20.5V16H12.5V14Z" fill="#E2B436"/>
<path d="M10.5 16H8.5V18H10.5V16Z" fill="#CF8934"/>
<path d="M6.5 6H4.5V18H6.5V6Z" fill="#F7FEFF"/>
<path d="M20.5 16V14H18.5V8H14.5V10H12.5V12H14.5V14H12.5V16H20.5Z" fill="#C2751D"/>
<path d="M28.5 6H26.5V18H28.5V6Z" fill="#F7FEFF"/>
<path d="M8.5 6H6.5V18H8.5V6Z" fill="#231E2B"/>
<path d="M26.5 6H24.5V18H26.5V6Z" fill="#231E2B"/>
<path d="M24.5 6H22.5V8H24.5V6Z" fill="#F5F38E"/>
<path d="M10.5 6H8.5V8H10.5V6Z" fill="#F5F38E"/>
<path d="M26.5 4H24.5V6H26.5V4Z" fill="#F7FEFF"/>
<path d="M24.5 4H22.5V6H24.5V4Z" fill="#231E2B"/>
<path d="M22.5 4H10.5V6H22.5V4Z" fill="#F5F38E"/>
<path d="M10.5 4H8.5V6H10.5V4Z" fill="#231E2B"/>
<path d="M8.5 4H6.5V6H8.5V4Z" fill="#F7FEFF"/>
<path d="M24.5 2H22.5V4H24.5V2Z" fill="#F7FEFF"/>
<path d="M22.5 2H10.5V4H22.5V2Z" fill="#231E2B"/>
<path d="M10.5 2H8.5V4H10.5V2Z" fill="#F7FEFF"/>
<path d="M22.5 0H10.5V2H22.5V0Z" fill="#F7FEFF"/>
</svg>
